<mxfile host="65bd71144e">
    <diagram id="inVLoNlP1onoN6qqcunI" name="第 1 页">
        <mxGraphModel dx="-142" dy="529" grid="1" gridSize="16" guides="1" tooltips="1" connect="1" arrows="1" fold="1" page="0" pageScale="1" pageWidth="4681" pageHeight="3300" background="none" math="0" shadow="0">
            <root>
                <mxCell id="0"/>
                <mxCell id="1" parent="0"/>
                <mxCell id="65" style="edgeStyle=none;rounded=0;html=1;exitX=1;exitY=0.75;exitDx=0;exitDy=0;entryX=0;entryY=0.5;entryDx=0;entryDy=0;fontFamily=Helvetica;fontSize=14;fontColor=#1A1A1A;strokeColor=#1A1A1A;" parent="1" source="2" target="19" edge="1">
                    <mxGeometry relative="1" as="geometry">
                        <Array as="points">
                            <mxPoint x="1088" y="559"/>
                            <mxPoint x="1088" y="608"/>
                        </Array>
                    </mxGeometry>
                </mxCell>
                <mxCell id="178" style="edgeStyle=none;rounded=0;html=1;exitX=1;exitY=0.25;exitDx=0;exitDy=0;entryX=0;entryY=0.5;entryDx=0;entryDy=0;strokeColor=#1A1A1A;" parent="1" source="2" target="3" edge="1">
                    <mxGeometry relative="1" as="geometry">
                        <Array as="points">
                            <mxPoint x="1088" y="528"/>
                            <mxPoint x="1088" y="479"/>
                            <mxPoint x="1104" y="479"/>
                        </Array>
                    </mxGeometry>
                </mxCell>
                <mxCell id="2" value="&lt;font color=&quot;#1a1a1a&quot; style=&quot;font-size: 14px;&quot;&gt;#备货单创建&lt;/font&gt;" style="rounded=0;whiteSpace=wrap;html=1;fillColor=none;strokeColor=#1A1A1A;labelBorderColor=none;fontSize=14;" parent="1" vertex="1">
                    <mxGeometry x="928" y="512" width="128" height="64" as="geometry"/>
                </mxCell>
                <mxCell id="150" style="edgeStyle=none;rounded=0;html=1;exitX=1;exitY=0.5;exitDx=0;exitDy=0;entryX=0;entryY=0.5;entryDx=0;entryDy=0;strokeColor=#1A1A1A;" parent="1" source="3" target="6" edge="1">
                    <mxGeometry relative="1" as="geometry">
                        <Array as="points"/>
                    </mxGeometry>
                </mxCell>
                <mxCell id="206" value="&lt;font style=&quot;font-size: 12px&quot;&gt;有可用库存&lt;/font&gt;" style="edgeLabel;html=1;align=center;verticalAlign=top;resizable=0;points=[];fontColor=#1A1A1A;labelPosition=center;verticalLabelPosition=bottom;labelBackgroundColor=none;" parent="150" vertex="1" connectable="0">
                    <mxGeometry x="-0.0597" relative="1" as="geometry">
                        <mxPoint x="-6" as="offset"/>
                    </mxGeometry>
                </mxCell>
                <mxCell id="199" style="edgeStyle=none;rounded=0;html=1;exitX=0.5;exitY=0;exitDx=0;exitDy=0;entryX=0;entryY=0.5;entryDx=0;entryDy=0;fontColor=#1A1A1A;strokeColor=#1A1A1A;" parent="1" source="3" target="153" edge="1">
                    <mxGeometry relative="1" as="geometry">
                        <Array as="points">
                            <mxPoint x="1184" y="352"/>
                        </Array>
                    </mxGeometry>
                </mxCell>
                <mxCell id="205" value="&lt;font style=&quot;font-size: 12px&quot;&gt;无可用库存&lt;/font&gt;" style="edgeLabel;html=1;align=right;verticalAlign=middle;resizable=0;points=[];fontColor=#1A1A1A;labelBackgroundColor=none;labelPosition=left;verticalLabelPosition=middle;" parent="199" vertex="1" connectable="0">
                    <mxGeometry x="-0.8519" relative="1" as="geometry">
                        <mxPoint x="-1" y="-8" as="offset"/>
                    </mxGeometry>
                </mxCell>
                <mxCell id="3" value="有无库存？" style="rhombus;whiteSpace=wrap;html=1;rounded=0;labelBackgroundColor=none;fontFamily=Helvetica;fontSize=14;fontColor=#1A1A1A;strokeColor=#1A1A1A;fillColor=none;labelBorderColor=none;" parent="1" vertex="1">
                    <mxGeometry x="1104" y="431" width="160" height="96" as="geometry"/>
                </mxCell>
                <mxCell id="6" value="&lt;span style=&quot;color: rgb(26 , 26 , 26)&quot;&gt;#备货单查询&lt;br&gt;#关联库存&lt;br&gt;（使货冻结）&lt;/span&gt;" style="rounded=0;whiteSpace=wrap;html=1;fillColor=none;strokeColor=#1A1A1A;labelBorderColor=none;fontSize=14;" parent="1" vertex="1">
                    <mxGeometry x="1312" y="448" width="128" height="64" as="geometry"/>
                </mxCell>
                <mxCell id="182" style="edgeStyle=none;rounded=0;html=1;exitX=1;exitY=0.5;exitDx=0;exitDy=0;entryX=0;entryY=0.5;entryDx=0;entryDy=0;strokeColor=#1A1A1A;" parent="1" source="10" target="232" edge="1">
                    <mxGeometry relative="1" as="geometry">
                        <mxPoint x="1312" y="224" as="targetPoint"/>
                    </mxGeometry>
                </mxCell>
                <mxCell id="10" value="&lt;font color=&quot;#1a1a1a&quot;&gt;#生产计划管理&lt;br&gt;#录入生产计划&lt;br&gt;&lt;/font&gt;" style="rounded=0;whiteSpace=wrap;html=1;fillColor=none;strokeColor=#1A1A1A;labelBorderColor=none;fontSize=14;" parent="1" vertex="1">
                    <mxGeometry x="1120" y="176" width="128" height="64" as="geometry"/>
                </mxCell>
                <mxCell id="26" style="edgeStyle=none;rounded=0;html=1;exitX=1;exitY=0.5;exitDx=0;exitDy=0;fontFamily=Helvetica;fontSize=14;fontColor=#1A1A1A;strokeColor=#1A1A1A;entryX=0;entryY=0.5;entryDx=0;entryDy=0;" parent="1" source="102" target="101" edge="1">
                    <mxGeometry relative="1" as="geometry">
                        <mxPoint x="2271" y="31" as="sourcePoint"/>
                        <mxPoint x="2384" y="64" as="targetPoint"/>
                    </mxGeometry>
                </mxCell>
                <mxCell id="117" style="edgeStyle=none;rounded=0;html=1;exitX=1;exitY=0.5;exitDx=0;exitDy=0;entryX=0;entryY=0.5;entryDx=0;entryDy=0;strokeColor=#1A1A1A;" parent="1" source="15" target="116" edge="1">
                    <mxGeometry relative="1" as="geometry"/>
                </mxCell>
                <mxCell id="15" value="&lt;font color=&quot;#1a1a1a&quot;&gt;#销售合同查询&lt;br&gt;#下单&lt;br&gt;&lt;/font&gt;" style="rounded=0;whiteSpace=wrap;html=1;fillColor=none;strokeColor=#1A1A1A;labelBorderColor=none;fontSize=14;" parent="1" vertex="1">
                    <mxGeometry x="1504" y="576" width="128" height="64" as="geometry"/>
                </mxCell>
                <mxCell id="33" style="edgeStyle=none;rounded=0;html=1;exitX=1;exitY=0.5;exitDx=0;exitDy=0;entryX=0;entryY=0.5;entryDx=0;entryDy=0;fontFamily=Helvetica;fontSize=14;fontColor=#1A1A1A;strokeColor=#1A1A1A;" parent="1" source="19" target="15" edge="1">
                    <mxGeometry relative="1" as="geometry">
                        <mxPoint x="1295" y="616.9999999999998" as="sourcePoint"/>
                        <mxPoint x="2111" y="617" as="targetPoint"/>
                    </mxGeometry>
                </mxCell>
                <mxCell id="207" value="&lt;font style=&quot;font-size: 12px&quot;&gt;有可用合同&lt;/font&gt;" style="edgeLabel;html=1;align=center;verticalAlign=bottom;resizable=0;points=[];fontColor=#1A1A1A;labelBackgroundColor=none;labelPosition=center;verticalLabelPosition=top;" parent="33" vertex="1" connectable="0">
                    <mxGeometry x="-0.0681" y="1" relative="1" as="geometry">
                        <mxPoint x="-1" as="offset"/>
                    </mxGeometry>
                </mxCell>
                <mxCell id="146" style="edgeStyle=none;rounded=0;html=1;exitX=0.5;exitY=1;exitDx=0;exitDy=0;entryX=0;entryY=0.5;entryDx=0;entryDy=0;strokeColor=#1A1A1A;" parent="1" source="19" target="30" edge="1">
                    <mxGeometry relative="1" as="geometry">
                        <Array as="points">
                            <mxPoint x="1184" y="736"/>
                            <mxPoint x="1215" y="736"/>
                        </Array>
                    </mxGeometry>
                </mxCell>
                <mxCell id="204" value="&lt;font style=&quot;font-size: 12px&quot;&gt;无可用合同&lt;/font&gt;" style="edgeLabel;html=1;align=right;verticalAlign=middle;resizable=0;points=[];fontColor=#1A1A1A;labelBackgroundColor=none;labelPosition=left;verticalLabelPosition=middle;" parent="146" vertex="1" connectable="0">
                    <mxGeometry x="-0.7142" y="1" relative="1" as="geometry">
                        <mxPoint x="-1" y="-1" as="offset"/>
                    </mxGeometry>
                </mxCell>
                <mxCell id="19" value="有无合同？" style="rhombus;whiteSpace=wrap;html=1;rounded=0;labelBackgroundColor=none;fontFamily=Helvetica;fontSize=14;fontColor=#1A1A1A;strokeColor=#1A1A1A;fillColor=none;labelBorderColor=none;" parent="1" vertex="1">
                    <mxGeometry x="1104" y="560" width="160" height="96" as="geometry"/>
                </mxCell>
                <mxCell id="37" style="edgeStyle=none;rounded=0;html=1;exitX=1;exitY=0.5;exitDx=0;exitDy=0;fontFamily=Helvetica;fontSize=14;fontColor=#1A1A1A;strokeColor=#1A1A1A;" parent="1" source="30" target="35" edge="1">
                    <mxGeometry relative="1" as="geometry"/>
                </mxCell>
                <mxCell id="30" value="&lt;font color=&quot;#1a1a1a&quot;&gt;#销售合同创建&lt;/font&gt;" style="rounded=0;whiteSpace=wrap;html=1;fillColor=none;strokeColor=#1A1A1A;labelBorderColor=none;fontSize=14;" parent="1" vertex="1">
                    <mxGeometry x="1216" y="704" width="128" height="64" as="geometry"/>
                </mxCell>
                <mxCell id="147" style="edgeStyle=none;rounded=0;html=1;exitX=1;exitY=0.5;exitDx=0;exitDy=0;entryX=0.5;entryY=1;entryDx=0;entryDy=0;strokeColor=#1A1A1A;" parent="1" source="35" target="15" edge="1">
                    <mxGeometry relative="1" as="geometry">
                        <Array as="points">
                            <mxPoint x="1568" y="736"/>
                        </Array>
                    </mxGeometry>
                </mxCell>
                <mxCell id="35" value="&lt;font color=&quot;#1a1a1a&quot;&gt;#销售合同查询&lt;br&gt;#上传（已签合同）&lt;/font&gt;" style="rounded=0;whiteSpace=wrap;html=1;fillColor=none;strokeColor=#1A1A1A;labelBorderColor=none;fontSize=14;" parent="1" vertex="1">
                    <mxGeometry x="1408" y="704" width="128" height="64" as="geometry"/>
                </mxCell>
                <mxCell id="38" style="edgeStyle=none;rounded=0;html=1;exitX=1;exitY=0.5;exitDx=0;exitDy=0;entryX=0;entryY=0.5;entryDx=0;entryDy=0;fontFamily=Helvetica;fontSize=14;fontColor=#1A1A1A;strokeColor=#1A1A1A;" parent="1" source="39" target="41" edge="1">
                    <mxGeometry relative="1" as="geometry"/>
                </mxCell>
                <mxCell id="39" value="&lt;font color=&quot;#1a1a1a&quot;&gt;委托物流公司&lt;/font&gt;" style="rounded=0;whiteSpace=wrap;html=1;fillColor=none;strokeColor=#1A1A1A;labelBorderColor=none;fontSize=14;" parent="1" vertex="1">
                    <mxGeometry x="928" y="832" width="128" height="64" as="geometry"/>
                </mxCell>
                <mxCell id="47" style="edgeStyle=none;rounded=0;html=1;exitX=1;exitY=0.5;exitDx=0;exitDy=0;fontFamily=Helvetica;fontSize=14;fontColor=#1A1A1A;strokeColor=#1A1A1A;entryX=0;entryY=0.5;entryDx=0;entryDy=0;" parent="1" source="41" target="45" edge="1">
                    <mxGeometry relative="1" as="geometry">
                        <mxPoint x="1855" y="1087.666666666667" as="targetPoint"/>
                    </mxGeometry>
                </mxCell>
                <mxCell id="208" value="有可用合同" style="edgeLabel;html=1;align=center;verticalAlign=bottom;resizable=0;points=[];fontColor=#1A1A1A;labelPosition=center;verticalLabelPosition=top;labelBackgroundColor=none;fontSize=12;" parent="47" vertex="1" connectable="0">
                    <mxGeometry x="0.0753" y="-1" relative="1" as="geometry">
                        <mxPoint x="-1" as="offset"/>
                    </mxGeometry>
                </mxCell>
                <mxCell id="177" style="edgeStyle=none;rounded=0;html=1;exitX=0.5;exitY=1;exitDx=0;exitDy=0;entryX=0;entryY=0.5;entryDx=0;entryDy=0;strokeColor=#1A1A1A;" parent="1" source="41" target="43" edge="1">
                    <mxGeometry relative="1" as="geometry">
                        <Array as="points">
                            <mxPoint x="1184" y="992"/>
                        </Array>
                    </mxGeometry>
                </mxCell>
                <mxCell id="203" value="&lt;font style=&quot;font-size: 12px&quot;&gt;无可用合同&lt;/font&gt;" style="edgeLabel;html=1;align=right;verticalAlign=middle;resizable=0;points=[];fontColor=#1A1A1A;labelPosition=left;verticalLabelPosition=middle;labelBackgroundColor=none;" parent="177" vertex="1" connectable="0">
                    <mxGeometry x="-0.7202" relative="1" as="geometry">
                        <mxPoint y="-1" as="offset"/>
                    </mxGeometry>
                </mxCell>
                <mxCell id="41" value="有无合同？" style="rhombus;whiteSpace=wrap;html=1;rounded=0;labelBackgroundColor=none;fontFamily=Helvetica;fontSize=14;fontColor=#1A1A1A;strokeColor=#1A1A1A;fillColor=none;labelBorderColor=none;" parent="1" vertex="1">
                    <mxGeometry x="1104" y="816" width="160" height="96" as="geometry"/>
                </mxCell>
                <mxCell id="163" style="edgeStyle=none;rounded=0;html=1;exitX=1;exitY=0.5;exitDx=0;exitDy=0;entryX=0;entryY=0.5;entryDx=0;entryDy=0;strokeColor=#1A1A1A;" parent="1" source="43" target="44" edge="1">
                    <mxGeometry relative="1" as="geometry"/>
                </mxCell>
                <mxCell id="43" value="&lt;font color=&quot;#1a1a1a&quot;&gt;#物流合同创建&lt;/font&gt;" style="rounded=0;whiteSpace=wrap;html=1;fillColor=none;strokeColor=#1A1A1A;labelBorderColor=none;fontSize=14;" parent="1" vertex="1">
                    <mxGeometry x="1216" y="960" width="128" height="64" as="geometry"/>
                </mxCell>
                <mxCell id="162" style="edgeStyle=none;rounded=0;html=1;exitX=1;exitY=0.5;exitDx=0;exitDy=0;entryX=0.594;entryY=0.99;entryDx=0;entryDy=0;strokeColor=#1A1A1A;entryPerimeter=0;" parent="1" source="44" target="45" edge="1">
                    <mxGeometry relative="1" as="geometry">
                        <Array as="points">
                            <mxPoint x="1568" y="992"/>
                        </Array>
                    </mxGeometry>
                </mxCell>
                <mxCell id="44" value="&lt;font color=&quot;#1a1a1a&quot;&gt;#物流合同查询&lt;br&gt;#签订（已签合同）&lt;/font&gt;&lt;font color=&quot;#1a1a1a&quot;&gt;&lt;br&gt;&lt;/font&gt;" style="rounded=0;whiteSpace=wrap;html=1;fillColor=none;strokeColor=#1A1A1A;labelBorderColor=none;fontSize=14;" parent="1" vertex="1">
                    <mxGeometry x="1408" y="960" width="128" height="64" as="geometry"/>
                </mxCell>
                <mxCell id="51" style="edgeStyle=none;rounded=0;html=1;exitX=1;exitY=0.5;exitDx=0;exitDy=0;entryX=0;entryY=0.5;entryDx=0;entryDy=0;fontFamily=Helvetica;fontSize=14;fontColor=#1A1A1A;strokeColor=#1A1A1A;" parent="1" source="45" target="50" edge="1">
                    <mxGeometry relative="1" as="geometry"/>
                </mxCell>
                <mxCell id="45" value="&lt;font color=&quot;#1a1a1a&quot;&gt;#物流合同查询&lt;br&gt;#关联物流结算单&lt;br&gt;（或#物流结算单创建）&lt;br&gt;&lt;/font&gt;" style="rounded=0;whiteSpace=wrap;html=1;fillColor=none;strokeColor=#1A1A1A;labelBorderColor=none;fontSize=14;" parent="1" vertex="1">
                    <mxGeometry x="1472" y="832" width="160" height="64" as="geometry"/>
                </mxCell>
                <mxCell id="56" style="edgeStyle=none;rounded=0;html=1;exitX=1;exitY=0.5;exitDx=0;exitDy=0;entryX=0;entryY=0.5;entryDx=0;entryDy=0;fontFamily=Helvetica;fontSize=14;fontColor=#1A1A1A;strokeColor=#1A1A1A;" parent="1" source="48" target="55" edge="1">
                    <mxGeometry relative="1" as="geometry"/>
                </mxCell>
                <mxCell id="48" value="&lt;font color=&quot;#1a1a1a&quot; style=&quot;font-size: 14px&quot;&gt;#采购计划创建&lt;br&gt;&lt;/font&gt;" style="rounded=0;whiteSpace=wrap;html=1;fillColor=none;strokeColor=#1A1A1A;labelBorderColor=none;fontSize=14;" parent="1" vertex="1">
                    <mxGeometry x="928" y="1216" width="128" height="64" as="geometry"/>
                </mxCell>
                <mxCell id="115" style="edgeStyle=none;rounded=0;html=1;exitX=1;exitY=0.5;exitDx=0;exitDy=0;entryX=0;entryY=0.5;entryDx=0;entryDy=0;strokeColor=#1A1A1A;" parent="1" source="50" target="114" edge="1">
                    <mxGeometry relative="1" as="geometry"/>
                </mxCell>
                <mxCell id="50" value="&lt;font color=&quot;#1a1a1a&quot;&gt;#物流结算单查询&lt;br&gt;#生成对账单&lt;/font&gt;" style="rounded=0;whiteSpace=wrap;html=1;fillColor=none;strokeColor=#1A1A1A;labelBorderColor=none;fontSize=14;" parent="1" vertex="1">
                    <mxGeometry x="1696" y="832" width="128" height="64" as="geometry"/>
                </mxCell>
                <mxCell id="58" style="edgeStyle=none;rounded=0;html=1;exitX=1;exitY=0.5;exitDx=0;exitDy=0;entryX=0;entryY=0.5;entryDx=0;entryDy=0;fontFamily=Helvetica;fontSize=14;fontColor=#1A1A1A;strokeColor=#1A1A1A;" parent="1" source="52" target="53" edge="1">
                    <mxGeometry relative="1" as="geometry"/>
                </mxCell>
                <mxCell id="52" value="&lt;font color=&quot;#1a1a1a&quot; style=&quot;font-size: 14px&quot;&gt;#待采购清单&lt;br&gt;#创建采购合同&lt;br&gt;&lt;/font&gt;" style="rounded=0;whiteSpace=wrap;html=1;fillColor=none;strokeColor=#1A1A1A;labelBorderColor=none;fontSize=14;" parent="1" vertex="1">
                    <mxGeometry x="1216" y="1088" width="128" height="64" as="geometry"/>
                </mxCell>
                <mxCell id="59" style="edgeStyle=none;rounded=0;html=1;exitX=1;exitY=0.5;exitDx=0;exitDy=0;entryX=0.5;entryY=0;entryDx=0;entryDy=0;fontFamily=Helvetica;fontSize=14;fontColor=#1A1A1A;strokeColor=#1A1A1A;" parent="1" source="53" target="54" edge="1">
                    <mxGeometry relative="1" as="geometry">
                        <Array as="points">
                            <mxPoint x="1568" y="1120"/>
                        </Array>
                    </mxGeometry>
                </mxCell>
                <mxCell id="53" value="&lt;font color=&quot;#1a1a1a&quot;&gt;#采购合同&lt;br&gt;#上传（已签合同）&lt;/font&gt;" style="rounded=0;whiteSpace=wrap;html=1;fillColor=none;strokeColor=#1A1A1A;labelBorderColor=none;fontSize=14;" parent="1" vertex="1">
                    <mxGeometry x="1408" y="1088" width="128" height="64" as="geometry"/>
                </mxCell>
                <mxCell id="108" style="edgeStyle=none;rounded=0;html=1;exitX=1;exitY=0.5;exitDx=0;exitDy=0;entryX=0;entryY=0.5;entryDx=0;entryDy=0;strokeColor=#1A1A1A;" parent="1" source="54" target="75" edge="1">
                    <mxGeometry relative="1" as="geometry"/>
                </mxCell>
                <mxCell id="54" value="&lt;font color=&quot;#1a1a1a&quot;&gt;#采购合同&lt;br&gt;#下单&lt;br&gt;&lt;/font&gt;" style="rounded=0;whiteSpace=wrap;html=1;fillColor=none;strokeColor=#1A1A1A;labelBorderColor=none;fontSize=14;" parent="1" vertex="1">
                    <mxGeometry x="1504" y="1216" width="128" height="64" as="geometry"/>
                </mxCell>
                <mxCell id="57" style="edgeStyle=none;rounded=0;html=1;exitX=0.5;exitY=0;exitDx=0;exitDy=0;entryX=0;entryY=0.5;entryDx=0;entryDy=0;fontFamily=Helvetica;fontSize=14;fontColor=#1A1A1A;strokeColor=#1A1A1A;" parent="1" source="55" target="52" edge="1">
                    <mxGeometry relative="1" as="geometry">
                        <Array as="points">
                            <mxPoint x="1184" y="1120"/>
                            <mxPoint x="1215" y="1120"/>
                        </Array>
                    </mxGeometry>
                </mxCell>
                <mxCell id="202" value="无可用合同" style="edgeLabel;html=1;align=right;verticalAlign=middle;resizable=0;points=[];fontColor=#1A1A1A;labelBackgroundColor=none;labelPosition=left;verticalLabelPosition=middle;fontSize=12;" parent="57" vertex="1" connectable="0">
                    <mxGeometry x="-0.7233" y="-1" relative="1" as="geometry">
                        <mxPoint x="-1" y="-3" as="offset"/>
                    </mxGeometry>
                </mxCell>
                <mxCell id="266" style="edgeStyle=none;html=1;exitX=1;exitY=0.5;exitDx=0;exitDy=0;labelBackgroundColor=default;rounded=0;strokeColor=#1A1A1A;entryX=0;entryY=0.5;entryDx=0;entryDy=0;" parent="1" source="55" target="264" edge="1">
                    <mxGeometry relative="1" as="geometry"/>
                </mxCell>
                <mxCell id="269" value="有可用合同" style="edgeLabel;html=1;align=center;verticalAlign=bottom;resizable=0;points=[];labelBackgroundColor=none;fontColor=#1A1A1A;labelPosition=center;verticalLabelPosition=top;" parent="266" vertex="1" connectable="0">
                    <mxGeometry x="-0.0556" y="-1" relative="1" as="geometry">
                        <mxPoint x="-4" y="-2" as="offset"/>
                    </mxGeometry>
                </mxCell>
                <mxCell id="55" value="有无合同？" style="rhombus;whiteSpace=wrap;html=1;rounded=0;labelBackgroundColor=none;fontFamily=Helvetica;fontSize=14;fontColor=#1A1A1A;strokeColor=#1A1A1A;fillColor=none;labelBorderColor=none;" parent="1" vertex="1">
                    <mxGeometry x="1104" y="1200" width="160" height="96" as="geometry"/>
                </mxCell>
                <mxCell id="159" style="edgeStyle=none;rounded=0;html=1;exitX=1;exitY=0.5;exitDx=0;exitDy=0;entryX=0;entryY=0.5;entryDx=0;entryDy=0;strokeColor=#1A1A1A;" parent="1" source="61" target="68" edge="1">
                    <mxGeometry relative="1" as="geometry"/>
                </mxCell>
                <mxCell id="61" value="&lt;span style=&quot;color: rgb(26 , 26 , 26)&quot;&gt;关联批次&lt;br&gt;&lt;/span&gt;&lt;font color=&quot;#1a1a1a&quot;&gt;#销售订单审批&lt;br&gt;（使货解冻出库）&lt;br&gt;&lt;/font&gt;" style="rounded=0;whiteSpace=wrap;html=1;fillColor=none;strokeColor=#1A1A1A;labelBorderColor=none;fontSize=14;" parent="1" vertex="1">
                    <mxGeometry x="1888" y="576" width="128" height="64" as="geometry"/>
                </mxCell>
                <mxCell id="161" style="edgeStyle=none;rounded=0;html=1;exitX=0.5;exitY=0;exitDx=0;exitDy=0;entryX=0.5;entryY=1;entryDx=0;entryDy=0;strokeColor=#1A1A1A;" parent="1" source="63" target="67" edge="1">
                    <mxGeometry relative="1" as="geometry"/>
                </mxCell>
                <mxCell id="63" value="&lt;font color=&quot;#1a1a1a&quot;&gt;#销售合同查询&lt;br&gt;#录入发票&lt;br&gt;&lt;/font&gt;" style="rounded=0;whiteSpace=wrap;html=1;fillColor=none;strokeColor=#1A1A1A;labelBorderColor=none;fontSize=14;" parent="1" vertex="1">
                    <mxGeometry x="2272" y="576" width="128" height="64" as="geometry"/>
                </mxCell>
                <mxCell id="231" style="edgeStyle=none;rounded=0;html=1;exitX=0.5;exitY=0;exitDx=0;exitDy=0;entryX=0.5;entryY=1;entryDx=0;entryDy=0;strokeColor=#1A1A1A;" parent="1" source="67" target="230" edge="1">
                    <mxGeometry relative="1" as="geometry"/>
                </mxCell>
                <mxCell id="67" value="&lt;font color=&quot;#1a1a1a&quot;&gt;#销项发票录入&lt;br&gt;&lt;/font&gt;" style="rounded=0;whiteSpace=wrap;html=1;fillColor=none;strokeColor=#1A1A1A;labelBorderColor=none;fontSize=14;" parent="1" vertex="1">
                    <mxGeometry x="2272" y="448" width="128" height="64" as="geometry"/>
                </mxCell>
                <mxCell id="175" style="edgeStyle=none;rounded=0;html=1;exitX=1;exitY=0.5;exitDx=0;exitDy=0;entryX=0;entryY=0.5;entryDx=0;entryDy=0;strokeColor=#1A1A1A;" parent="1" source="68" target="63" edge="1">
                    <mxGeometry relative="1" as="geometry"/>
                </mxCell>
                <mxCell id="68" value="&lt;font color=&quot;#1a1a1a&quot;&gt;销售出库，发货&lt;/font&gt;" style="rounded=0;whiteSpace=wrap;html=1;fillColor=none;strokeColor=#1A1A1A;labelBorderColor=none;fontSize=14;" parent="1" vertex="1">
                    <mxGeometry x="2080" y="576" width="128" height="64" as="geometry"/>
                </mxCell>
                <mxCell id="112" style="edgeStyle=none;rounded=0;html=1;exitX=1;exitY=0.5;exitDx=0;exitDy=0;entryX=0;entryY=0.5;entryDx=0;entryDy=0;strokeColor=#1A1A1A;" parent="1" source="75" target="76" edge="1">
                    <mxGeometry relative="1" as="geometry"/>
                </mxCell>
                <mxCell id="280" value="" style="edgeStyle=none;rounded=0;html=1;labelBackgroundColor=default;fontSize=18;fontColor=#1A1A1A;strokeColor=#1A1A1A;" parent="1" source="75" target="76" edge="1">
                    <mxGeometry relative="1" as="geometry"/>
                </mxCell>
                <mxCell id="75" value="&lt;font color=&quot;#1a1a1a&quot;&gt;到货&lt;/font&gt;" style="rounded=0;whiteSpace=wrap;html=1;fillColor=none;strokeColor=#1A1A1A;labelBorderColor=none;fontSize=14;" parent="1" vertex="1">
                    <mxGeometry x="1696" y="1216" width="128" height="64" as="geometry"/>
                </mxCell>
                <mxCell id="83" style="edgeStyle=none;rounded=0;html=1;exitX=1;exitY=0.5;exitDx=0;exitDy=0;entryX=0;entryY=0.5;entryDx=0;entryDy=0;fontFamily=Helvetica;fontSize=14;fontColor=#1A1A1A;strokeColor=#1A1A1A;" parent="1" source="76" target="81" edge="1">
                    <mxGeometry relative="1" as="geometry"/>
                </mxCell>
                <mxCell id="218" value="无需检验" style="edgeLabel;html=1;align=center;verticalAlign=bottom;resizable=0;points=[];fontColor=#1A1A1A;labelPosition=center;verticalLabelPosition=top;labelBackgroundColor=none;fontSize=12;" parent="83" vertex="1" connectable="0">
                    <mxGeometry x="-0.0347" relative="1" as="geometry">
                        <mxPoint as="offset"/>
                    </mxGeometry>
                </mxCell>
                <mxCell id="168" style="edgeStyle=none;rounded=0;html=1;exitX=0.5;exitY=0;exitDx=0;exitDy=0;entryX=0.5;entryY=1;entryDx=0;entryDy=0;strokeColor=#1A1A1A;" parent="1" source="76" target="82" edge="1">
                    <mxGeometry relative="1" as="geometry"/>
                </mxCell>
                <mxCell id="216" value="需检验" style="edgeLabel;html=1;align=left;verticalAlign=middle;resizable=0;points=[];fontColor=#1A1A1A;labelBackgroundColor=none;labelPosition=right;verticalLabelPosition=middle;fontSize=12;" parent="168" vertex="1" connectable="0">
                    <mxGeometry x="0.0207" relative="1" as="geometry">
                        <mxPoint as="offset"/>
                    </mxGeometry>
                </mxCell>
                <mxCell id="76" value="是否需检验？&lt;br&gt;（原料、中间品&lt;br&gt;及成品）" style="rhombus;whiteSpace=wrap;html=1;rounded=0;labelBackgroundColor=none;fontFamily=Helvetica;fontSize=14;fontColor=#1A1A1A;strokeColor=#1A1A1A;fillColor=none;labelBorderColor=none;" parent="1" vertex="1">
                    <mxGeometry x="1872" y="1200" width="160" height="96" as="geometry"/>
                </mxCell>
                <mxCell id="78" value="&lt;font color=&quot;#1a1a1a&quot;&gt;退货&lt;/font&gt;" style="rounded=0;whiteSpace=wrap;html=1;fillColor=none;strokeColor=#1A1A1A;labelBorderColor=none;fontSize=14;" parent="1" vertex="1">
                    <mxGeometry x="1696" y="960" width="128" height="64" as="geometry"/>
                </mxCell>
                <mxCell id="94" style="edgeStyle=none;rounded=0;html=1;exitX=1;exitY=0.5;exitDx=0;exitDy=0;entryX=0;entryY=0.5;entryDx=0;entryDy=0;fontFamily=Helvetica;fontSize=14;fontColor=#1A1A1A;strokeColor=#1A1A1A;" parent="1" source="81" target="93" edge="1">
                    <mxGeometry relative="1" as="geometry"/>
                </mxCell>
                <mxCell id="81" value="&lt;span style=&quot;color: rgb(26 , 26 , 26)&quot;&gt;采购入库&lt;br&gt;&lt;/span&gt;&lt;font color=&quot;#1a1a1a&quot;&gt;#采购订单审批&lt;/font&gt;" style="rounded=0;whiteSpace=wrap;html=1;fillColor=none;strokeColor=#1A1A1A;labelBorderColor=none;fontSize=14;" parent="1" vertex="1">
                    <mxGeometry x="2080" y="1216" width="128" height="64" as="geometry"/>
                </mxCell>
                <mxCell id="169" style="edgeStyle=none;rounded=0;html=1;exitX=0.5;exitY=0;exitDx=0;exitDy=0;entryX=0.5;entryY=1;entryDx=0;entryDy=0;strokeColor=#1A1A1A;" parent="1" source="82" target="89" edge="1">
                    <mxGeometry relative="1" as="geometry"/>
                </mxCell>
                <mxCell id="220" value="不合格" style="edgeLabel;html=1;align=left;verticalAlign=middle;resizable=0;points=[];fontColor=#1A1A1A;labelBackgroundColor=none;labelPosition=right;verticalLabelPosition=middle;fontSize=12;" parent="169" vertex="1" connectable="0">
                    <mxGeometry x="-0.0106" y="-1" relative="1" as="geometry">
                        <mxPoint as="offset"/>
                    </mxGeometry>
                </mxCell>
                <mxCell id="173" style="edgeStyle=none;rounded=0;html=1;exitX=1;exitY=0.5;exitDx=0;exitDy=0;strokeColor=#1A1A1A;" parent="1" source="82" edge="1">
                    <mxGeometry relative="1" as="geometry">
                        <mxPoint x="2112" y="1216" as="targetPoint"/>
                        <Array as="points">
                            <mxPoint x="2112" y="1120"/>
                        </Array>
                    </mxGeometry>
                </mxCell>
                <mxCell id="219" value="合格" style="edgeLabel;html=1;align=center;verticalAlign=bottom;resizable=0;points=[];fontColor=#1A1A1A;labelPosition=center;verticalLabelPosition=top;labelBackgroundColor=none;fontSize=12;" parent="173" vertex="1" connectable="0">
                    <mxGeometry x="-0.5322" y="1" relative="1" as="geometry">
                        <mxPoint as="offset"/>
                    </mxGeometry>
                </mxCell>
                <mxCell id="82" value="是否检验合格？" style="rhombus;whiteSpace=wrap;html=1;rounded=0;labelBackgroundColor=none;fontFamily=Helvetica;fontSize=14;fontColor=#1A1A1A;strokeColor=#1A1A1A;fillColor=none;labelBorderColor=none;" parent="1" vertex="1">
                    <mxGeometry x="1872" y="1072" width="160" height="96" as="geometry"/>
                </mxCell>
                <mxCell id="170" style="edgeStyle=none;rounded=0;html=1;exitX=0.75;exitY=1;exitDx=0;exitDy=0;entryX=0.75;entryY=0;entryDx=0;entryDy=0;strokeColor=#1A1A1A;" parent="1" source="88" target="81" edge="1">
                    <mxGeometry relative="1" as="geometry"/>
                </mxCell>
                <mxCell id="88" value="&lt;font color=&quot;#1a1a1a&quot;&gt;降等接收&lt;/font&gt;" style="rounded=0;whiteSpace=wrap;html=1;fillColor=none;strokeColor=#1A1A1A;labelBorderColor=none;fontSize=14;" parent="1" vertex="1">
                    <mxGeometry x="2080" y="960" width="128" height="64" as="geometry"/>
                </mxCell>
                <mxCell id="91" style="edgeStyle=none;rounded=0;html=1;exitX=0;exitY=0.5;exitDx=0;exitDy=0;entryX=1;entryY=0.5;entryDx=0;entryDy=0;fontFamily=Helvetica;fontSize=14;fontColor=#1A1A1A;strokeColor=#1A1A1A;" parent="1" source="89" target="78" edge="1">
                    <mxGeometry relative="1" as="geometry"/>
                </mxCell>
                <mxCell id="92" style="edgeStyle=none;rounded=0;html=1;exitX=1;exitY=0.5;exitDx=0;exitDy=0;entryX=0;entryY=0.5;entryDx=0;entryDy=0;fontFamily=Helvetica;fontSize=14;fontColor=#1A1A1A;strokeColor=#1A1A1A;" parent="1" source="89" target="88" edge="1">
                    <mxGeometry relative="1" as="geometry"/>
                </mxCell>
                <mxCell id="89" value="总经理决策&lt;br&gt;#采购订单审批" style="rhombus;whiteSpace=wrap;html=1;rounded=0;labelBackgroundColor=none;fontFamily=Helvetica;fontSize=14;fontColor=#1A1A1A;strokeColor=#1A1A1A;fillColor=none;labelBorderColor=none;" parent="1" vertex="1">
                    <mxGeometry x="1872" y="944" width="160" height="96" as="geometry"/>
                </mxCell>
                <mxCell id="96" style="edgeStyle=none;rounded=0;html=1;exitX=0.5;exitY=0;exitDx=0;exitDy=0;entryX=0.5;entryY=1;entryDx=0;entryDy=0;fontFamily=Helvetica;fontSize=14;fontColor=#1A1A1A;strokeColor=#1A1A1A;" parent="1" source="93" target="95" edge="1">
                    <mxGeometry relative="1" as="geometry"/>
                </mxCell>
                <mxCell id="93" value="&lt;font color=&quot;#1a1a1a&quot;&gt;#采购合同&lt;br&gt;#录入发票&lt;br&gt;&lt;/font&gt;" style="rounded=0;whiteSpace=wrap;html=1;fillColor=none;strokeColor=#1A1A1A;labelBorderColor=none;fontSize=14;" parent="1" vertex="1">
                    <mxGeometry x="2272" y="1216" width="128" height="64" as="geometry"/>
                </mxCell>
                <mxCell id="229" style="edgeStyle=none;rounded=0;html=1;exitX=0.5;exitY=0;exitDx=0;exitDy=0;entryX=0.5;entryY=1;entryDx=0;entryDy=0;strokeColor=#1A1A1A;" parent="1" source="95" target="228" edge="1">
                    <mxGeometry relative="1" as="geometry"/>
                </mxCell>
                <mxCell id="95" value="&lt;font color=&quot;#1a1a1a&quot;&gt;#进项发票录入&lt;br&gt;&lt;/font&gt;" style="rounded=0;whiteSpace=wrap;html=1;fillColor=none;strokeColor=#1A1A1A;labelBorderColor=none;fontSize=14;" parent="1" vertex="1">
                    <mxGeometry x="2272" y="1088" width="128" height="64" as="geometry"/>
                </mxCell>
                <mxCell id="99" value="&lt;font color=&quot;#1a1a1a&quot;&gt;生产入库（成品库）&lt;/font&gt;&lt;span style=&quot;color: rgb(26 , 26 , 26)&quot;&gt;#库存操作审批&lt;/span&gt;" style="rounded=0;whiteSpace=wrap;html=1;fillColor=none;strokeColor=#1A1A1A;labelBorderColor=none;fontSize=14;" parent="1" vertex="1">
                    <mxGeometry x="2272" y="176" width="128" height="64" as="geometry"/>
                </mxCell>
                <mxCell id="103" style="edgeStyle=none;rounded=0;html=1;exitX=1;exitY=0.5;exitDx=0;exitDy=0;entryX=0;entryY=0.5;entryDx=0;entryDy=0;fontFamily=Helvetica;fontSize=14;fontColor=#1A1A1A;strokeColor=#1A1A1A;" parent="1" source="101" target="99" edge="1">
                    <mxGeometry relative="1" as="geometry"/>
                </mxCell>
                <mxCell id="209" value="&lt;font style=&quot;font-size: 12px&quot;&gt;合格&lt;/font&gt;" style="edgeLabel;html=1;align=center;verticalAlign=bottom;resizable=0;points=[];fontColor=#1A1A1A;labelBackgroundColor=none;labelPosition=center;verticalLabelPosition=top;" parent="103" vertex="1" connectable="0">
                    <mxGeometry x="-0.0486" y="-1" relative="1" as="geometry">
                        <mxPoint as="offset"/>
                    </mxGeometry>
                </mxCell>
                <mxCell id="171" style="edgeStyle=none;rounded=0;html=1;exitX=0.5;exitY=1;exitDx=0;exitDy=0;entryX=0.5;entryY=0;entryDx=0;entryDy=0;strokeColor=#1A1A1A;" parent="1" source="101" target="104" edge="1">
                    <mxGeometry relative="1" as="geometry"/>
                </mxCell>
                <mxCell id="221" value="&lt;font style=&quot;font-size: 12px&quot;&gt;不合格&lt;/font&gt;" style="edgeLabel;html=1;align=left;verticalAlign=middle;resizable=0;points=[];fontColor=#1A1A1A;labelPosition=right;verticalLabelPosition=middle;labelBackgroundColor=none;" parent="171" vertex="1" connectable="0">
                    <mxGeometry x="-0.0832" y="2" relative="1" as="geometry">
                        <mxPoint as="offset"/>
                    </mxGeometry>
                </mxCell>
                <mxCell id="101" value="是否检验合格？" style="rhombus;whiteSpace=wrap;html=1;rounded=0;labelBackgroundColor=none;fontFamily=Helvetica;fontSize=14;fontColor=#1A1A1A;strokeColor=#1A1A1A;fillColor=none;labelBorderColor=none;" parent="1" vertex="1">
                    <mxGeometry x="2064" y="160" width="160" height="96" as="geometry"/>
                </mxCell>
                <mxCell id="102" value="&lt;span style=&quot;color: rgb(26 , 26 , 26)&quot;&gt;#生产情况&lt;br&gt;&lt;/span&gt;&lt;font color=&quot;#1a1a1a&quot;&gt;提交入库&lt;/font&gt;" style="rounded=0;whiteSpace=wrap;html=1;fillColor=none;strokeColor=#1A1A1A;labelBorderColor=none;fontSize=14;" parent="1" vertex="1">
                    <mxGeometry x="1888" y="176" width="128" height="64" as="geometry"/>
                </mxCell>
                <mxCell id="104" value="&lt;font color=&quot;#1a1a1a&quot;&gt;生产入库（废品库）&lt;/font&gt;&lt;span style=&quot;color: rgb(26 , 26 , 26)&quot;&gt;#库存操作审批&lt;/span&gt;" style="rounded=0;whiteSpace=wrap;html=1;fillColor=none;strokeColor=#1A1A1A;labelBorderColor=none;fontSize=14;" parent="1" vertex="1">
                    <mxGeometry x="2080" y="304" width="128" height="64" as="geometry"/>
                </mxCell>
                <mxCell id="226" style="edgeStyle=none;html=1;exitX=1;exitY=0.5;exitDx=0;exitDy=0;entryX=0;entryY=0.5;entryDx=0;entryDy=0;rounded=0;strokeColor=#1A1A1A;" parent="1" source="114" target="225" edge="1">
                    <mxGeometry relative="1" as="geometry"/>
                </mxCell>
                <mxCell id="114" value="&lt;span style=&quot;color: rgb(26 , 26 , 26)&quot;&gt;#物流发票录入&lt;/span&gt;" style="rounded=0;whiteSpace=wrap;html=1;fillColor=none;strokeColor=#1A1A1A;labelBorderColor=none;fontSize=14;" parent="1" vertex="1">
                    <mxGeometry x="1888" y="832" width="128" height="64" as="geometry"/>
                </mxCell>
                <mxCell id="118" style="edgeStyle=none;rounded=0;html=1;exitX=1;exitY=0.5;exitDx=0;exitDy=0;entryX=0;entryY=0.5;entryDx=0;entryDy=0;strokeColor=#1A1A1A;" parent="1" source="116" target="61" edge="1">
                    <mxGeometry relative="1" as="geometry"/>
                </mxCell>
                <mxCell id="116" value="&lt;span style=&quot;color: rgb(26 , 26 , 26)&quot;&gt;#销售合同查询&lt;/span&gt;&lt;br style=&quot;color: rgb(26 , 26 , 26)&quot;&gt;&lt;span style=&quot;color: rgb(26 , 26 , 26)&quot;&gt;#提交审批&lt;/span&gt;" style="rounded=0;whiteSpace=wrap;html=1;fillColor=none;strokeColor=#1A1A1A;labelBorderColor=none;fontSize=14;" parent="1" vertex="1">
                    <mxGeometry x="1696" y="576" width="128" height="64" as="geometry"/>
                </mxCell>
                <mxCell id="134" style="edgeStyle=none;rounded=0;html=1;exitX=1;exitY=0.5;exitDx=0;exitDy=0;entryX=0;entryY=0.5;entryDx=0;entryDy=0;strokeColor=#1A1A1A;" parent="1" source="139" target="10" edge="1">
                    <mxGeometry relative="1" as="geometry">
                        <mxPoint x="1088" y="31" as="sourcePoint"/>
                    </mxGeometry>
                </mxCell>
                <mxCell id="181" style="edgeStyle=none;rounded=0;html=1;exitX=1;exitY=0.5;exitDx=0;exitDy=0;entryX=0;entryY=0.5;entryDx=0;entryDy=0;strokeColor=#1A1A1A;" parent="1" source="232" target="179" edge="1">
                    <mxGeometry relative="1" as="geometry">
                        <mxPoint x="1440" y="224" as="sourcePoint"/>
                    </mxGeometry>
                </mxCell>
                <mxCell id="256" value="原料充足" style="edgeLabel;html=1;align=center;verticalAlign=bottom;resizable=0;points=[];fontSize=12;fontColor=#1A1A1A;labelBackgroundColor=none;labelPosition=center;verticalLabelPosition=top;" parent="181" vertex="1" connectable="0">
                    <mxGeometry x="-0.1389" relative="1" as="geometry">
                        <mxPoint y="-1" as="offset"/>
                    </mxGeometry>
                </mxCell>
                <mxCell id="139" value="&lt;span style=&quot;color: rgb(26 , 26 , 26) ; font-size: 14px&quot;&gt;#生产计划管理&lt;/span&gt;&lt;br style=&quot;color: rgb(26 , 26 , 26) ; font-size: 14px&quot;&gt;&lt;span style=&quot;color: rgb(26 , 26 , 26) ; font-size: 14px&quot;&gt;#备货单汇总&lt;br&gt;&lt;/span&gt;" style="rounded=1;whiteSpace=wrap;html=1;strokeColor=#1A1A1A;fillColor=none;" parent="1" vertex="1">
                    <mxGeometry x="928" y="176" width="128" height="64" as="geometry"/>
                </mxCell>
                <mxCell id="158" style="edgeStyle=none;rounded=0;html=1;exitX=1;exitY=0.5;exitDx=0;exitDy=0;entryX=0.5;entryY=0;entryDx=0;entryDy=0;strokeColor=#1A1A1A;" parent="1" source="153" target="6" edge="1">
                    <mxGeometry relative="1" as="geometry">
                        <Array as="points">
                            <mxPoint x="1376" y="352"/>
                        </Array>
                    </mxGeometry>
                </mxCell>
                <mxCell id="153" value="&lt;font color=&quot;#1a1a1a&quot;&gt;等待生产完成，&lt;br&gt;且入库&lt;br&gt;&lt;/font&gt;" style="rounded=0;whiteSpace=wrap;html=1;fillColor=none;strokeColor=#1A1A1A;labelBorderColor=none;fontSize=14;" parent="1" vertex="1">
                    <mxGeometry x="1216" y="320" width="128" height="64" as="geometry"/>
                </mxCell>
                <mxCell id="258" style="edgeStyle=none;rounded=0;html=1;exitX=1;exitY=0.5;exitDx=0;exitDy=0;entryX=0;entryY=0.5;entryDx=0;entryDy=0;labelBackgroundColor=default;fontSize=12;fontColor=#1A1A1A;strokeColor=#1A1A1A;" parent="1" source="179" target="245" edge="1">
                    <mxGeometry relative="1" as="geometry"/>
                </mxCell>
                <mxCell id="179" value="&lt;span style=&quot;color: rgb(26 , 26 , 26)&quot;&gt;开始生产&lt;br&gt;&lt;/span&gt;" style="rounded=0;whiteSpace=wrap;html=1;fillColor=none;strokeColor=#1A1A1A;labelBorderColor=none;fontSize=14;" parent="1" vertex="1">
                    <mxGeometry x="1504" y="176" width="128" height="64" as="geometry"/>
                </mxCell>
                <mxCell id="191" value="" style="endArrow=none;dashed=1;html=1;rounded=0;strokeColor=#1A1A1A;exitX=1;exitY=0.5;exitDx=0;exitDy=0;entryX=0.5;entryY=0;entryDx=0;entryDy=0;" parent="1" source="6" target="61" edge="1">
                    <mxGeometry width="50" height="50" relative="1" as="geometry">
                        <mxPoint x="1696" y="482" as="sourcePoint"/>
                        <mxPoint x="1746" y="432" as="targetPoint"/>
                        <Array as="points">
                            <mxPoint x="1952" y="479"/>
                        </Array>
                    </mxGeometry>
                </mxCell>
                <mxCell id="234" value="&lt;span style=&quot;color: rgb(26 , 26 , 26) ; text-align: right&quot;&gt;解冻出库的是之前冻结的货&lt;/span&gt;" style="edgeLabel;html=1;align=center;verticalAlign=top;resizable=0;points=[];labelBackgroundColor=none;labelPosition=center;verticalLabelPosition=bottom;" parent="191" vertex="1" connectable="0">
                    <mxGeometry x="-0.1615" y="-1" relative="1" as="geometry">
                        <mxPoint as="offset"/>
                    </mxGeometry>
                </mxCell>
                <mxCell id="195" value="&lt;b&gt;生产&lt;/b&gt;" style="text;html=1;strokeColor=none;fillColor=none;align=center;verticalAlign=middle;whiteSpace=wrap;rounded=0;fontColor=#1A1A1A;" parent="1" vertex="1">
                    <mxGeometry x="864" y="192" width="64" height="32" as="geometry"/>
                </mxCell>
                <mxCell id="196" value="&lt;b&gt;销售&lt;/b&gt;" style="text;html=1;strokeColor=none;fillColor=none;align=center;verticalAlign=middle;whiteSpace=wrap;rounded=0;fontColor=#1A1A1A;" parent="1" vertex="1">
                    <mxGeometry x="864" y="527" width="64" height="32" as="geometry"/>
                </mxCell>
                <mxCell id="197" value="&lt;b&gt;物流&lt;/b&gt;" style="text;html=1;strokeColor=none;fillColor=none;align=center;verticalAlign=middle;whiteSpace=wrap;rounded=0;fontColor=#1A1A1A;" parent="1" vertex="1">
                    <mxGeometry x="864" y="848" width="64" height="32" as="geometry"/>
                </mxCell>
                <mxCell id="198" value="&lt;b&gt;采购&lt;/b&gt;" style="text;html=1;strokeColor=none;fillColor=none;align=center;verticalAlign=middle;whiteSpace=wrap;rounded=0;fontColor=#1A1A1A;" parent="1" vertex="1">
                    <mxGeometry x="864" y="1232" width="64" height="32" as="geometry"/>
                </mxCell>
                <mxCell id="223" value="&lt;font size=&quot;1&quot;&gt;&lt;b style=&quot;font-size: 14px&quot;&gt;注：带#为相应页面的操作步骤&lt;br&gt;&lt;/b&gt;&lt;/font&gt;" style="text;html=1;strokeColor=none;fillColor=none;align=center;verticalAlign=middle;whiteSpace=wrap;rounded=0;fontColor=#1A1A1A;" parent="1" vertex="1">
                    <mxGeometry x="2208" y="128" width="224" height="32" as="geometry"/>
                </mxCell>
                <mxCell id="225" value="&lt;span style=&quot;color: rgb(26 , 26 , 26)&quot;&gt;#采购付款申请&lt;/span&gt;" style="rounded=0;whiteSpace=wrap;html=1;fillColor=none;strokeColor=#1A1A1A;labelBorderColor=none;fontSize=14;" parent="1" vertex="1">
                    <mxGeometry x="2080" y="832" width="128" height="64" as="geometry"/>
                </mxCell>
                <mxCell id="228" value="&lt;font color=&quot;#1a1a1a&quot;&gt;#采购付款申请&lt;br&gt;&lt;/font&gt;" style="rounded=0;whiteSpace=wrap;html=1;fillColor=none;strokeColor=#1A1A1A;labelBorderColor=none;fontSize=14;" parent="1" vertex="1">
                    <mxGeometry x="2272" y="960" width="128" height="64" as="geometry"/>
                </mxCell>
                <mxCell id="230" value="&lt;font color=&quot;#1a1a1a&quot;&gt;#销项收款录入&lt;br&gt;&lt;/font&gt;" style="rounded=0;whiteSpace=wrap;html=1;fillColor=none;strokeColor=#1A1A1A;labelBorderColor=none;fontSize=14;" parent="1" vertex="1">
                    <mxGeometry x="2272" y="320" width="128" height="64" as="geometry"/>
                </mxCell>
                <mxCell id="249" style="edgeStyle=none;rounded=0;html=1;exitX=0.5;exitY=1;exitDx=0;exitDy=0;entryX=0;entryY=0.5;entryDx=0;entryDy=0;labelBackgroundColor=default;strokeColor=#1A1A1A;" parent="1" source="232" target="235" edge="1">
                    <mxGeometry relative="1" as="geometry">
                        <Array as="points">
                            <mxPoint x="1376" y="336"/>
                        </Array>
                    </mxGeometry>
                </mxCell>
                <mxCell id="254" value="不足，需领料" style="edgeLabel;html=1;align=right;verticalAlign=middle;resizable=0;points=[];labelBackgroundColor=none;fontSize=12;fontColor=#1A1A1A;labelPosition=left;verticalLabelPosition=middle;" parent="249" vertex="1" connectable="0">
                    <mxGeometry x="-0.7678" relative="1" as="geometry">
                        <mxPoint y="2" as="offset"/>
                    </mxGeometry>
                </mxCell>
                <mxCell id="232" value="生产暂存库的&lt;br&gt;原料是否充足？" style="rhombus;whiteSpace=wrap;html=1;rounded=0;labelBackgroundColor=none;fontFamily=Helvetica;fontSize=14;fontColor=#1A1A1A;strokeColor=#1A1A1A;fillColor=none;labelBorderColor=none;" parent="1" vertex="1">
                    <mxGeometry x="1296" y="160" width="160" height="96" as="geometry"/>
                </mxCell>
                <mxCell id="246" style="edgeStyle=none;rounded=0;html=1;exitX=1;exitY=0.5;exitDx=0;exitDy=0;entryX=0.5;entryY=1;entryDx=0;entryDy=0;labelBackgroundColor=default;strokeColor=#1A1A1A;" parent="1" source="235" target="179" edge="1">
                    <mxGeometry relative="1" as="geometry">
                        <Array as="points">
                            <mxPoint x="1568" y="336"/>
                        </Array>
                    </mxGeometry>
                </mxCell>
                <mxCell id="235" value="&lt;span style=&quot;color: rgb(26 , 26 , 26)&quot;&gt;#生产暂存库管理&lt;br&gt;#领料入库申请&lt;br&gt;&lt;/span&gt;" style="rounded=0;whiteSpace=wrap;html=1;fillColor=none;strokeColor=#1A1A1A;labelBorderColor=none;fontSize=14;" parent="1" vertex="1">
                    <mxGeometry x="1408" y="304" width="128" height="64" as="geometry"/>
                </mxCell>
                <mxCell id="259" style="edgeStyle=none;rounded=0;html=1;exitX=1;exitY=0.5;exitDx=0;exitDy=0;entryX=0;entryY=0.5;entryDx=0;entryDy=0;labelBackgroundColor=default;fontSize=12;fontColor=#1A1A1A;strokeColor=#1A1A1A;" parent="1" source="245" target="102" edge="1">
                    <mxGeometry relative="1" as="geometry"/>
                </mxCell>
                <mxCell id="245" value="&lt;span style=&quot;color: rgb(26 , 26 , 26)&quot;&gt;#生产情况&lt;br&gt;提交操作记录&lt;br&gt;提交化验结果&lt;br&gt;&lt;/span&gt;" style="rounded=0;whiteSpace=wrap;html=1;fillColor=none;strokeColor=#1A1A1A;labelBorderColor=none;fontSize=14;" parent="1" vertex="1">
                    <mxGeometry x="1696" y="176" width="128" height="64" as="geometry"/>
                </mxCell>
                <mxCell id="251" value="" style="endArrow=none;dashed=1;html=1;rounded=0;strokeColor=#1A1A1A;exitX=0.5;exitY=1;exitDx=0;exitDy=0;entryX=0.5;entryY=0;entryDx=0;entryDy=0;" parent="1" source="139" target="2" edge="1">
                    <mxGeometry width="50" height="50" relative="1" as="geometry">
                        <mxPoint x="1472" y="416" as="sourcePoint"/>
                        <mxPoint x="1984" y="512" as="targetPoint"/>
                        <Array as="points"/>
                    </mxGeometry>
                </mxCell>
                <mxCell id="281" value="（查看）" style="edgeLabel;html=1;align=center;verticalAlign=middle;resizable=0;points=[];fontSize=12;fontColor=#1A1A1A;labelBackgroundColor=none;" parent="251" vertex="1" connectable="0">
                    <mxGeometry x="-0.8787" y="1" relative="1" as="geometry">
                        <mxPoint x="16" y="-9" as="offset"/>
                    </mxGeometry>
                </mxCell>
                <mxCell id="267" style="edgeStyle=none;rounded=0;html=1;exitX=1;exitY=0.5;exitDx=0;exitDy=0;entryX=0;entryY=0.5;entryDx=0;entryDy=0;labelBackgroundColor=default;strokeColor=#1A1A1A;" parent="1" source="264" target="54" edge="1">
                    <mxGeometry relative="1" as="geometry"/>
                </mxCell>
                <mxCell id="264" value="&lt;span style=&quot;color: rgb(26 , 26 , 26)&quot;&gt;#待采购清单&lt;/span&gt;&lt;br style=&quot;color: rgb(26 , 26 , 26)&quot;&gt;&lt;span style=&quot;color: rgb(26 , 26 , 26)&quot;&gt;#关联合同&lt;/span&gt;&lt;font color=&quot;#1a1a1a&quot;&gt;&lt;br&gt;&lt;/font&gt;" style="rounded=0;whiteSpace=wrap;html=1;fillColor=none;strokeColor=#1A1A1A;labelBorderColor=none;fontSize=14;" parent="1" vertex="1">
                    <mxGeometry x="1312" y="1216" width="128" height="64" as="geometry"/>
                </mxCell>
                <mxCell id="172" value="" style="rounded=0;whiteSpace=wrap;html=1;strokeColor=#1A1A1A;fillColor=none;" parent="1" vertex="1">
                    <mxGeometry x="864" y="128" width="1568" height="1183" as="geometry"/>
                </mxCell>
            </root>
        </mxGraphModel>
    </diagram>
</mxfile>